<mxfile host="65bd71144e">
    <diagram id="ld3mcQhA281-zXJmEGoM" name="Page-1">
        <mxGraphModel dx="1401" dy="1574" grid="1" gridSize="10" guides="1" tooltips="1" connect="1" arrows="1" fold="1" page="1" pageScale="1" pageWidth="827" pageHeight="1169" math="0" shadow="0">
            <root>
                <mxCell id="0"/>
                <mxCell id="1" parent="0"/>
                <mxCell id="2" style="edgeStyle=none;shape=connector;rounded=1;html=1;labelBackgroundColor=none;strokeWidth=2;fontFamily=Helvetica;fontSize=20;fontColor=default;endArrow=none;endFill=0;exitX=0.5;exitY=0;exitDx=0;exitDy=0;fontStyle=0" edge="1" parent="1" source="16" target="50">
                    <mxGeometry relative="1" as="geometry">
                        <mxPoint x="1638.75" y="705" as="sourcePoint"/>
                        <mxPoint x="1238.75" y="695" as="targetPoint"/>
                    </mxGeometry>
                </mxCell>
                <mxCell id="3" style="rounded=0;orthogonalLoop=1;jettySize=auto;html=1;endArrow=none;endFill=0;labelBackgroundColor=none;fontColor=default;strokeWidth=2;fontSize=20;fontStyle=0" edge="1" parent="1" source="4" target="13">
                    <mxGeometry relative="1" as="geometry">
                        <mxPoint x="1446.25" y="900" as="targetPoint"/>
                    </mxGeometry>
                </mxCell>
                <mxCell id="4" value="Usuario" style="text;html=1;align=center;verticalAlign=middle;whiteSpace=wrap;rounded=0;fontSize=20;labelBackgroundColor=none;strokeWidth=2;fontColor=default;fontStyle=0" vertex="1" parent="1">
                    <mxGeometry x="1408.75" y="995" width="75" height="30" as="geometry"/>
                </mxCell>
                <mxCell id="5" style="edgeStyle=none;shape=connector;rounded=1;html=1;labelBackgroundColor=none;strokeWidth=2;fontFamily=Helvetica;fontSize=20;fontColor=default;endArrow=none;endFill=0;fontStyle=0" edge="1" parent="1" source="20" target="9">
                    <mxGeometry relative="1" as="geometry">
                        <mxPoint x="1948.7548818897635" y="767" as="targetPoint"/>
                        <mxPoint x="1975.31" y="816" as="sourcePoint"/>
                    </mxGeometry>
                </mxCell>
                <mxCell id="6" style="rounded=0;orthogonalLoop=1;jettySize=auto;html=1;endArrow=none;endFill=0;labelBackgroundColor=none;fontColor=default;strokeWidth=2;fontSize=20;fontStyle=0" edge="1" parent="1" source="7" target="18">
                    <mxGeometry relative="1" as="geometry">
                        <mxPoint x="1916.25" y="867.5" as="sourcePoint"/>
                    </mxGeometry>
                </mxCell>
                <mxCell id="7" value="Pais" style="text;html=1;align=center;verticalAlign=middle;whiteSpace=wrap;rounded=0;fontSize=20;labelBackgroundColor=none;strokeWidth=2;fontColor=default;fontStyle=0" vertex="1" parent="1">
                    <mxGeometry x="1878.75" y="887" width="75" height="30" as="geometry"/>
                </mxCell>
                <mxCell id="8" style="edgeStyle=none;shape=connector;rounded=1;orthogonalLoop=1;jettySize=auto;html=1;strokeWidth=2;align=center;verticalAlign=middle;fontFamily=Helvetica;fontSize=20;fontColor=default;labelBackgroundColor=none;endArrow=none;endFill=0;fontStyle=0" edge="1" parent="1" source="9" target="60">
                    <mxGeometry relative="1" as="geometry">
                        <mxPoint x="2169.75" y="352.00000000000045" as="targetPoint"/>
                    </mxGeometry>
                </mxCell>
                <mxCell id="9" value="&lt;span style=&quot;font-family: sans-serif; text-align: start; font-size: 35px;&quot;&gt;&lt;font style=&quot;font-size: 35px;&quot;&gt;⋈&lt;/font&gt;&lt;/span&gt;" style="text;html=1;align=center;verticalAlign=middle;whiteSpace=wrap;rounded=0;fontSize=35;labelBackgroundColor=none;strokeWidth=2;fontColor=default;fontStyle=0" vertex="1" parent="1">
                    <mxGeometry x="1578.75" y="521" width="75" height="36" as="geometry"/>
                </mxCell>
                <mxCell id="10" value="&lt;span style=&quot;font-family: Helvetica; font-size: 20px; font-style: normal; font-variant-ligatures: normal; font-variant-caps: normal; letter-spacing: normal; orphans: 2; text-align: left; text-indent: 0px; text-transform: none; widows: 2; word-spacing: 0px; -webkit-text-stroke-width: 0px; white-space: normal; text-decoration-thickness: initial; text-decoration-style: initial; text-decoration-color: initial; float: none; display: inline !important;&quot;&gt;u.id_pais = p.id_pais&lt;/span&gt;" style="text;whiteSpace=wrap;html=1;labelBackgroundColor=none;verticalAlign=middle;strokeWidth=2;fontColor=default;fontSize=20;fontStyle=0" vertex="1" parent="1">
                    <mxGeometry x="1658.75" y="523.5" width="220" height="31" as="geometry"/>
                </mxCell>
                <mxCell id="11" value="&lt;span style=&quot;font-size: 20px;&quot;&gt;u.email,&amp;nbsp;&lt;/span&gt;&lt;div style=&quot;font-size: 20px;&quot;&gt;&lt;span style=&quot;font-size: 20px;&quot;&gt;u.nombre,&amp;nbsp;&lt;/span&gt;&lt;/div&gt;&lt;div style=&quot;font-size: 20px;&quot;&gt;&lt;span style=&quot;font-size: 20px;&quot;&gt;u.id_pais&lt;/span&gt;&lt;/div&gt;" style="text;whiteSpace=wrap;html=1;labelBackgroundColor=none;verticalAlign=top;strokeWidth=2;fontColor=default;fontSize=20;fontStyle=0" vertex="1" parent="1">
                    <mxGeometry x="1456.25" y="900" width="112.5" height="90" as="geometry"/>
                </mxCell>
                <mxCell id="12" style="rounded=0;orthogonalLoop=1;jettySize=auto;html=1;endArrow=none;endFill=0;fontStyle=0;fontSize=20;labelBackgroundColor=none;fontColor=default;strokeWidth=2;" edge="1" parent="1" source="13" target="16">
                    <mxGeometry relative="1" as="geometry"/>
                </mxCell>
                <mxCell id="13" value="&lt;span style=&quot;font-family: Helvetica; font-style: normal; font-variant-ligatures: normal; font-variant-caps: normal; letter-spacing: normal; orphans: 2; text-indent: 0px; text-transform: none; widows: 2; word-spacing: 0px; -webkit-text-stroke-width: 0px; white-space: normal; text-decoration-thickness: initial; text-decoration-style: initial; text-decoration-color: initial; float: none; font-size: 35px; display: inline !important;&quot;&gt;&lt;font style=&quot;font-size: 35px;&quot;&gt;&lt;span style=&quot;font-size: 35px;&quot;&gt;π&lt;/span&gt;&lt;/font&gt;&lt;/span&gt;" style="text;whiteSpace=wrap;html=1;align=center;verticalAlign=middle;fontSize=35;labelBackgroundColor=none;strokeWidth=2;fontColor=default;fontStyle=0" vertex="1" parent="1">
                    <mxGeometry x="1436.25" y="880" width="20" height="30" as="geometry"/>
                </mxCell>
                <mxCell id="14" value="&lt;span style=&quot;font-family: Helvetica; font-size: 20px; font-style: normal; font-variant-ligatures: normal; font-variant-caps: normal; letter-spacing: normal; orphans: 2; text-align: left; text-indent: 0px; text-transform: none; widows: 2; word-spacing: 0px; -webkit-text-stroke-width: 0px; white-space: normal; text-decoration-thickness: initial; text-decoration-style: initial; text-decoration-color: initial; float: none; display: inline !important;&quot;&gt;p.nombre_pais = 'Uruguay'&lt;/span&gt;" style="text;whiteSpace=wrap;html=1;labelBackgroundColor=none;fontSize=20;strokeWidth=2;fontColor=default;fontStyle=0" vertex="1" parent="1">
                    <mxGeometry x="1926.25" y="677" width="250" height="35" as="geometry"/>
                </mxCell>
                <mxCell id="15" value="&lt;span style=&quot;font-family: Helvetica; font-size: 20px; font-style: normal; font-variant-ligatures: normal; font-variant-caps: normal; letter-spacing: normal; orphans: 2; text-align: left; text-indent: 0px; text-transform: none; widows: 2; word-spacing: 0px; -webkit-text-stroke-width: 0px; white-space: normal; text-decoration-thickness: initial; text-decoration-style: initial; text-decoration-color: initial; float: none; display: inline !important;&quot;&gt;u.fecha_reg BETWEEN TO_DATE('01/01/2023','DD/MM/YYYY') AND TO_DATE('31/12/2023','DD/MM/YYYY')&lt;/span&gt;" style="text;whiteSpace=wrap;html=1;labelBackgroundColor=none;strokeWidth=2;fontColor=default;fontSize=20;fontStyle=0" vertex="1" parent="1">
                    <mxGeometry x="1468.75" y="780" width="410" height="100" as="geometry"/>
                </mxCell>
                <mxCell id="16" value="&lt;span style=&quot;font-size: 35px;&quot;&gt;σ &lt;/span&gt;" style="text;html=1;align=center;verticalAlign=middle;whiteSpace=wrap;rounded=0;fontFamily=Helvetica;fontSize=35;labelBackgroundColor=none;strokeWidth=2;fontColor=default;fontStyle=0" vertex="1" parent="1">
                    <mxGeometry x="1416.25" y="780" width="60" height="40" as="geometry"/>
                </mxCell>
                <mxCell id="17" style="edgeStyle=none;shape=connector;rounded=0;orthogonalLoop=1;jettySize=auto;html=1;align=center;verticalAlign=middle;fontFamily=Helvetica;fontSize=20;fontColor=default;labelBackgroundColor=none;endArrow=none;endFill=0;strokeWidth=2;fontStyle=0" edge="1" parent="1" source="18" target="20">
                    <mxGeometry relative="1" as="geometry"/>
                </mxCell>
                <mxCell id="18" value="&lt;span style=&quot;font-family: Helvetica; font-style: normal; font-variant-ligatures: normal; font-variant-caps: normal; letter-spacing: normal; orphans: 2; text-indent: 0px; text-transform: none; widows: 2; word-spacing: 0px; -webkit-text-stroke-width: 0px; white-space: normal; text-decoration-thickness: initial; text-decoration-style: initial; text-decoration-color: initial; float: none; font-size: 35px; display: inline !important;&quot;&gt;&lt;font style=&quot;font-size: 35px;&quot;&gt;&lt;span style=&quot;font-size: 35px;&quot;&gt;π&lt;/span&gt;&lt;/font&gt;&lt;/span&gt;" style="text;whiteSpace=wrap;html=1;align=center;verticalAlign=middle;fontSize=35;labelBackgroundColor=none;strokeWidth=2;fontColor=default;fontStyle=0" vertex="1" parent="1">
                    <mxGeometry x="1906.25" y="747.5" width="20" height="30" as="geometry"/>
                </mxCell>
                <mxCell id="19" value="p.id, p.nombre" style="text;html=1;align=center;verticalAlign=middle;whiteSpace=wrap;rounded=0;fontFamily=Helvetica;fontSize=20;labelBackgroundColor=none;strokeWidth=2;fontColor=default;fontStyle=0" vertex="1" parent="1">
                    <mxGeometry x="1916.25" y="802" width="160" height="30" as="geometry"/>
                </mxCell>
                <mxCell id="20" value="&lt;span style=&quot;font-size: 35px;&quot;&gt;σ &lt;/span&gt;" style="text;html=1;align=center;verticalAlign=middle;whiteSpace=wrap;rounded=0;fontFamily=Helvetica;fontSize=35;labelBackgroundColor=none;strokeWidth=2;fontColor=default;fontStyle=0" vertex="1" parent="1">
                    <mxGeometry x="1886.25" y="617" width="60" height="45.5" as="geometry"/>
                </mxCell>
                <mxCell id="21" style="edgeStyle=none;shape=connector;rounded=1;html=1;labelBackgroundColor=none;strokeWidth=2;fontFamily=Helvetica;fontSize=20;fontColor=default;endArrow=none;endFill=0;fontStyle=0" edge="1" parent="1" source="29" target="27">
                    <mxGeometry relative="1" as="geometry">
                        <mxPoint x="2329.75" y="848.25" as="sourcePoint"/>
                    </mxGeometry>
                </mxCell>
                <mxCell id="22" style="edgeStyle=none;shape=connector;rounded=1;orthogonalLoop=1;jettySize=auto;html=1;align=center;verticalAlign=middle;fontFamily=Helvetica;fontSize=20;fontColor=default;labelBackgroundColor=none;endArrow=none;endFill=0;strokeWidth=2;fontStyle=0" edge="1" parent="1" source="23" target="29">
                    <mxGeometry relative="1" as="geometry">
                        <mxPoint x="2349.75" y="712.75" as="sourcePoint"/>
                    </mxGeometry>
                </mxCell>
                <mxCell id="23" value="Idioma" style="text;html=1;align=center;verticalAlign=middle;whiteSpace=wrap;rounded=0;fontSize=20;labelBackgroundColor=none;strokeWidth=2;fontColor=default;fontStyle=0" vertex="1" parent="1">
                    <mxGeometry x="2292.25" y="942.75" width="75" height="30" as="geometry"/>
                </mxCell>
                <mxCell id="24" style="edgeStyle=none;html=1;endArrow=none;endFill=0;strokeWidth=2;fontSize=20;labelBackgroundColor=none;fontColor=default;fontStyle=0" edge="1" parent="1" source="25" target="27">
                    <mxGeometry relative="1" as="geometry">
                        <mxPoint x="2199.75" y="848.25" as="sourcePoint"/>
                    </mxGeometry>
                </mxCell>
                <mxCell id="25" value="Maneja" style="text;html=1;align=center;verticalAlign=middle;whiteSpace=wrap;rounded=0;fontSize=20;labelBackgroundColor=none;strokeWidth=2;fontColor=default;fontStyle=0" vertex="1" parent="1">
                    <mxGeometry x="2149.75" y="847.75" width="75" height="30" as="geometry"/>
                </mxCell>
                <mxCell id="26" style="edgeStyle=none;shape=connector;rounded=1;orthogonalLoop=1;jettySize=auto;html=1;strokeWidth=2;align=center;verticalAlign=middle;fontFamily=Helvetica;fontSize=20;fontColor=default;labelBackgroundColor=none;endArrow=none;endFill=0;fontStyle=0" edge="1" parent="1" source="27" target="55">
                    <mxGeometry relative="1" as="geometry">
                        <mxPoint x="2549.75" y="568" as="targetPoint"/>
                    </mxGeometry>
                </mxCell>
                <mxCell id="27" value="&lt;span style=&quot;font-family: sans-serif; font-size: 35px; text-align: start;&quot;&gt;⋈&lt;/span&gt;" style="text;html=1;align=center;verticalAlign=middle;whiteSpace=wrap;rounded=0;fontSize=35;labelBackgroundColor=none;strokeWidth=2;fontColor=default;fontStyle=0" vertex="1" parent="1">
                    <mxGeometry x="2219.75" y="738.25" width="75" height="30" as="geometry"/>
                </mxCell>
                <mxCell id="28" value="&lt;span style=&quot;font-family: Helvetica; font-size: 20px; font-style: normal; font-variant-ligatures: normal; font-variant-caps: normal; letter-spacing: normal; orphans: 2; text-align: left; text-indent: 0px; text-transform: none; widows: 2; word-spacing: 0px; -webkit-text-stroke-width: 0px; white-space: normal; text-decoration-thickness: initial; text-decoration-style: initial; text-decoration-color: initial; float: none; display: inline !important;&quot;&gt;i.nombre = 'Ingles'&lt;/span&gt;" style="text;whiteSpace=wrap;html=1;fontFamily=Helvetica;fontSize=20;labelBackgroundColor=none;strokeWidth=2;fontColor=default;fontStyle=0" vertex="1" parent="1">
                    <mxGeometry x="2349.75" y="828.25" width="180" height="38" as="geometry"/>
                </mxCell>
                <mxCell id="29" value="&lt;span style=&quot;font-size: 35px;&quot;&gt;σ &lt;/span&gt;" style="text;html=1;align=center;verticalAlign=middle;whiteSpace=wrap;rounded=0;fontFamily=Helvetica;fontSize=35;labelBackgroundColor=none;strokeWidth=2;fontColor=default;fontStyle=0" vertex="1" parent="1">
                    <mxGeometry x="2299.75" y="812.75" width="60" height="30" as="geometry"/>
                </mxCell>
                <mxCell id="30" value="&lt;span style=&quot;font-family: Helvetica; font-size: 20px; font-style: normal; font-variant-ligatures: normal; font-variant-caps: normal; letter-spacing: normal; orphans: 2; text-align: left; text-indent: 0px; text-transform: none; widows: 2; word-spacing: 0px; -webkit-text-stroke-width: 0px; white-space: normal; text-decoration-thickness: initial; text-decoration-style: initial; text-decoration-color: initial; float: none; display: inline !important;&quot;&gt;m.id_idioma = i.id_idioma&lt;/span&gt;" style="text;whiteSpace=wrap;html=1;fontFamily=Helvetica;fontSize=20;labelBackgroundColor=none;strokeWidth=2;fontColor=default;fontStyle=0" vertex="1" parent="1">
                    <mxGeometry x="2294.75" y="733.25" width="260" height="40" as="geometry"/>
                </mxCell>
                <mxCell id="31" style="edgeStyle=none;shape=connector;rounded=1;html=1;labelBackgroundColor=none;strokeWidth=2;fontFamily=Helvetica;fontSize=20;fontColor=default;endArrow=none;endFill=0;fontStyle=0" edge="1" parent="1" source="32">
                    <mxGeometry relative="1" as="geometry">
                        <mxPoint x="2789.136521739131" y="636" as="targetPoint"/>
                        <mxPoint x="2717.2549625187407" y="679" as="sourcePoint"/>
                    </mxGeometry>
                </mxCell>
                <mxCell id="32" value="&lt;span style=&quot;font-size: 35px;&quot;&gt;σ&lt;/span&gt;" style="text;html=1;align=center;verticalAlign=middle;whiteSpace=wrap;rounded=0;fontSize=35;labelBackgroundColor=none;strokeWidth=2;fontColor=default;fontStyle=0" vertex="1" parent="1">
                    <mxGeometry x="2642.25" y="753" width="75" height="30" as="geometry"/>
                </mxCell>
                <mxCell id="33" style="edgeStyle=none;shape=connector;rounded=1;html=1;labelBackgroundColor=none;strokeWidth=2;fontFamily=Helvetica;fontSize=20;fontColor=default;endArrow=none;endFill=0;fontStyle=0" edge="1" parent="1" source="34">
                    <mxGeometry relative="1" as="geometry">
                        <mxPoint x="2815.223478260869" y="636" as="targetPoint"/>
                    </mxGeometry>
                </mxCell>
                <mxCell id="34" value="Tiene" style="text;html=1;align=center;verticalAlign=middle;whiteSpace=wrap;rounded=0;fontSize=20;labelBackgroundColor=none;strokeWidth=2;fontColor=default;fontStyle=0" vertex="1" parent="1">
                    <mxGeometry x="2840" y="677" width="75" height="30" as="geometry"/>
                </mxCell>
                <mxCell id="35" style="edgeStyle=none;shape=connector;rounded=1;orthogonalLoop=1;jettySize=auto;html=1;strokeWidth=2;align=center;verticalAlign=middle;fontFamily=Helvetica;fontSize=20;fontColor=default;labelBackgroundColor=none;endArrow=none;endFill=0;fontStyle=0" edge="1" parent="1" source="36" target="55">
                    <mxGeometry relative="1" as="geometry">
                        <mxPoint x="2769.75" y="518" as="targetPoint"/>
                    </mxGeometry>
                </mxCell>
                <mxCell id="36" value="&lt;span style=&quot;font-family: sans-serif; font-size: 35px; text-align: start;&quot;&gt;⋈&lt;/span&gt;" style="text;html=1;align=center;verticalAlign=middle;whiteSpace=wrap;rounded=0;fontSize=35;labelBackgroundColor=none;strokeWidth=2;fontColor=default;fontStyle=0" vertex="1" parent="1">
                    <mxGeometry x="2764.68" y="608" width="75" height="30" as="geometry"/>
                </mxCell>
                <mxCell id="37" style="edgeStyle=orthogonalEdgeStyle;rounded=0;orthogonalLoop=1;jettySize=auto;html=1;entryX=0.5;entryY=1;entryDx=0;entryDy=0;endArrow=none;endFill=0;strokeWidth=2;labelBackgroundColor=none;fontColor=default;fontSize=20;fontStyle=0" edge="1" parent="1" source="38" target="32">
                    <mxGeometry relative="1" as="geometry"/>
                </mxCell>
                <mxCell id="38" value="&lt;span style=&quot;font-family: Helvetica; font-style: normal; font-variant-ligatures: normal; font-variant-caps: normal; letter-spacing: normal; orphans: 2; text-indent: 0px; text-transform: none; widows: 2; word-spacing: 0px; -webkit-text-stroke-width: 0px; white-space: normal; text-decoration-thickness: initial; text-decoration-style: initial; text-decoration-color: initial; float: none; font-size: 35px; display: inline !important;&quot;&gt;&lt;font style=&quot;font-size: 35px;&quot;&gt;&lt;span style=&quot;font-size: 35px;&quot;&gt;π&lt;/span&gt;&lt;/font&gt;&lt;/span&gt;" style="text;whiteSpace=wrap;html=1;align=center;verticalAlign=middle;fontSize=35;labelBackgroundColor=none;strokeWidth=2;fontColor=default;fontStyle=0" vertex="1" parent="1">
                    <mxGeometry x="2669.75" y="918" width="20" height="30" as="geometry"/>
                </mxCell>
                <mxCell id="39" style="edgeStyle=orthogonalEdgeStyle;rounded=0;orthogonalLoop=1;jettySize=auto;html=1;entryX=0.5;entryY=1;entryDx=0;entryDy=0;endArrow=none;endFill=0;strokeWidth=2;labelBackgroundColor=none;fontColor=default;fontSize=20;fontStyle=0" edge="1" parent="1" source="40" target="38">
                    <mxGeometry relative="1" as="geometry"/>
                </mxCell>
                <mxCell id="40" value="Asistente" style="text;html=1;align=center;verticalAlign=middle;whiteSpace=wrap;rounded=0;fontSize=20;labelBackgroundColor=none;strokeWidth=2;fontColor=default;fontStyle=0" vertex="1" parent="1">
                    <mxGeometry x="2642.25" y="1038" width="75" height="30" as="geometry"/>
                </mxCell>
                <UserObject label="&lt;span style=&quot;font-family: Helvetica; font-size: 20px; font-style: normal; font-variant-ligatures: normal; font-variant-caps: normal; letter-spacing: normal; orphans: 2; text-align: left; text-indent: 0px; text-transform: none; widows: 2; word-spacing: 0px; -webkit-text-stroke-width: 0px; white-space: normal; text-decoration-thickness: initial; text-decoration-style: initial; text-decoration-color: initial; float: none; display: inline !important;&quot;&gt;av.subrol = 'Enseñanza de Idiomas' AND&amp;nbsp;&lt;/span&gt;&lt;span style=&quot;font-size: 20px;&quot;&gt;av.rol = 'Tutor'&lt;/span&gt;" link="&lt;span style=&quot;color: rgb(0, 0, 0); font-family: Helvetica; font-size: 20px; font-style: normal; font-variant-ligatures: normal; font-variant-caps: normal; font-weight: 400; letter-spacing: normal; orphans: 2; text-align: left; text-indent: 0px; text-transform: none; widows: 2; word-spacing: 0px; -webkit-text-stroke-width: 0px; white-space: normal; background-color: rgb(251, 251, 251); text-decoration-thickness: initial; text-decoration-style: initial; text-decoration-color: initial; display: inline !important; float: none;&quot;&gt;av.subrol = 'Enseñanza de Idiomas' AND&lt;/span&gt;" id="41">
                    <mxCell style="text;whiteSpace=wrap;html=1;labelBackgroundColor=none;strokeWidth=2;fontColor=default;fontSize=20;fontStyle=0" vertex="1" parent="1">
                        <mxGeometry x="2717.25" y="787" width="360" height="71" as="geometry"/>
                    </mxCell>
                </UserObject>
                <mxCell id="42" value="&lt;span style=&quot;font-family: Helvetica; font-size: 20px; font-style: normal; font-variant-ligatures: normal; font-variant-caps: normal; letter-spacing: normal; orphans: 2; text-align: left; text-indent: 0px; text-transform: none; widows: 2; word-spacing: 0px; -webkit-text-stroke-width: 0px; white-space: normal; text-decoration-thickness: initial; text-decoration-style: initial; text-decoration-color: initial; float: none; display: inline !important;&quot;&gt;t.id_asistente = av.id_asistente&amp;nbsp;&lt;/span&gt;" style="text;whiteSpace=wrap;html=1;labelBackgroundColor=none;strokeWidth=2;fontColor=default;fontSize=20;fontStyle=0" vertex="1" parent="1">
                    <mxGeometry x="2824.68" y="604" width="350" height="30" as="geometry"/>
                </mxCell>
                <mxCell id="43" value="&lt;span style=&quot;font-family: Helvetica; font-size: 20px; font-style: normal; font-variant-ligatures: normal; font-variant-caps: normal; letter-spacing: normal; orphans: 2; text-align: left; text-indent: 0px; text-transform: none; widows: 2; word-spacing: 0px; -webkit-text-stroke-width: 0px; white-space: normal; text-decoration-thickness: initial; text-decoration-style: initial; text-decoration-color: initial; float: none; display: inline !important;&quot;&gt;av.id_asistente,&lt;/span&gt;&lt;div style=&quot;font-size: 20px;&quot;&gt;&lt;span style=&quot;font-family: Helvetica; font-size: 20px; font-style: normal; font-variant-ligatures: normal; font-variant-caps: normal; letter-spacing: normal; orphans: 2; text-align: left; text-indent: 0px; text-transform: none; widows: 2; word-spacing: 0px; -webkit-text-stroke-width: 0px; white-space: normal; text-decoration-thickness: initial; text-decoration-style: initial; text-decoration-color: initial; float: none; display: inline !important;&quot;&gt;av.rol,&lt;div style=&quot;font-size: 20px;&quot;&gt;&lt;span style=&quot;font-size: 20px;&quot;&gt;av.subrol&lt;/span&gt;&lt;/div&gt;&lt;/span&gt;&lt;/div&gt;" style="text;whiteSpace=wrap;html=1;labelBackgroundColor=none;strokeWidth=2;fontColor=default;fontSize=20;fontStyle=0" vertex="1" parent="1">
                    <mxGeometry x="2519.75" y="928" width="140.25" height="90" as="geometry"/>
                </mxCell>
                <mxCell id="44" value="Billetera" style="text;html=1;align=center;verticalAlign=middle;whiteSpace=wrap;rounded=0;fontSize=20;labelBackgroundColor=none;strokeWidth=2;fontColor=default;fontStyle=0" vertex="1" parent="1">
                    <mxGeometry x="1075" y="995" width="75" height="30" as="geometry"/>
                </mxCell>
                <mxCell id="45" style="rounded=0;orthogonalLoop=1;jettySize=auto;html=1;endArrow=none;endFill=0;labelBackgroundColor=none;fontColor=default;strokeWidth=2;fontSize=20;fontStyle=0" edge="1" parent="1" source="44" target="47">
                    <mxGeometry relative="1" as="geometry">
                        <mxPoint x="1115.63" y="980" as="sourcePoint"/>
                        <mxPoint x="1115.63" y="895" as="targetPoint"/>
                    </mxGeometry>
                </mxCell>
                <mxCell id="46" style="edgeStyle=none;shape=connector;rounded=1;orthogonalLoop=1;jettySize=auto;html=1;strokeWidth=2;align=center;verticalAlign=middle;fontFamily=Helvetica;fontSize=20;fontColor=default;labelBackgroundColor=none;endArrow=none;endFill=0;fontStyle=0" edge="1" parent="1" source="47" target="52">
                    <mxGeometry relative="1" as="geometry"/>
                </mxCell>
                <mxCell id="47" value="&lt;span style=&quot;font-family: Helvetica; font-style: normal; font-variant-ligatures: normal; font-variant-caps: normal; letter-spacing: normal; orphans: 2; text-indent: 0px; text-transform: none; widows: 2; word-spacing: 0px; -webkit-text-stroke-width: 0px; white-space: normal; text-decoration-thickness: initial; text-decoration-style: initial; text-decoration-color: initial; float: none; font-size: 35px; display: inline !important;&quot;&gt;&lt;font style=&quot;font-size: 35px;&quot;&gt;&lt;span style=&quot;font-size: 35px;&quot;&gt;π&lt;/span&gt;&lt;/font&gt;&lt;/span&gt;" style="text;whiteSpace=wrap;html=1;align=center;verticalAlign=middle;fontSize=35;labelBackgroundColor=none;strokeWidth=2;fontColor=default;fontStyle=0" vertex="1" parent="1">
                    <mxGeometry x="1098.75" y="853.5" width="27.5" height="36.5" as="geometry"/>
                </mxCell>
                <mxCell id="48" value="&lt;span style=&quot;font-size: 20px;&quot;&gt;b.email,&lt;/span&gt;&lt;div style=&quot;font-size: 20px;&quot;&gt;&lt;span style=&quot;font-size: 20px;&quot;&gt;b.cant_gemas&lt;/span&gt;&lt;/div&gt;" style="text;whiteSpace=wrap;html=1;labelBackgroundColor=none;verticalAlign=top;strokeWidth=2;fontColor=default;fontSize=20;fontStyle=0" vertex="1" parent="1">
                    <mxGeometry x="1138.75" y="880" width="112.5" height="90" as="geometry"/>
                </mxCell>
                <mxCell id="49" style="edgeStyle=none;shape=connector;rounded=1;orthogonalLoop=1;jettySize=auto;html=1;strokeWidth=2;align=center;verticalAlign=middle;fontFamily=Helvetica;fontSize=20;fontColor=default;labelBackgroundColor=none;endArrow=none;endFill=0;fontStyle=0" edge="1" parent="1" source="50" target="9">
                    <mxGeometry relative="1" as="geometry"/>
                </mxCell>
                <mxCell id="50" value="&lt;span style=&quot;font-family: sans-serif; text-align: start; font-size: 35px;&quot;&gt;&lt;font style=&quot;font-size: 35px;&quot;&gt;⋈&lt;/font&gt;&lt;/span&gt;" style="text;html=1;align=center;verticalAlign=middle;whiteSpace=wrap;rounded=0;fontSize=35;labelBackgroundColor=none;strokeWidth=2;fontColor=default;fontStyle=0" vertex="1" parent="1">
                    <mxGeometry x="1176.25" y="653.5" width="75" height="36" as="geometry"/>
                </mxCell>
                <mxCell id="51" style="edgeStyle=none;shape=connector;rounded=1;orthogonalLoop=1;jettySize=auto;html=1;strokeWidth=2;align=center;verticalAlign=middle;fontFamily=Helvetica;fontSize=20;fontColor=default;labelBackgroundColor=none;endArrow=none;endFill=0;fontStyle=0" edge="1" parent="1" source="52" target="50">
                    <mxGeometry relative="1" as="geometry"/>
                </mxCell>
                <mxCell id="52" value="&lt;span style=&quot;font-size: 35px;&quot;&gt;σ &lt;/span&gt;" style="text;html=1;align=center;verticalAlign=middle;whiteSpace=wrap;rounded=0;fontFamily=Helvetica;fontSize=35;labelBackgroundColor=none;strokeWidth=2;fontColor=default;fontStyle=0" vertex="1" parent="1">
                    <mxGeometry x="1082.5" y="750" width="60" height="40" as="geometry"/>
                </mxCell>
                <mxCell id="53" value="&lt;span style=&quot;font-family: Helvetica; font-size: 20px; font-style: normal; font-variant-ligatures: normal; font-variant-caps: normal; letter-spacing: normal; orphans: 2; text-align: left; text-indent: 0px; text-transform: none; widows: 2; word-spacing: 0px; -webkit-text-stroke-width: 0px; white-space: normal; text-decoration-thickness: initial; text-decoration-style: initial; text-decoration-color: initial; float: none; display: inline !important;&quot;&gt;b.cant_gemas &amp;lt; 400 AND&lt;/span&gt;" style="text;whiteSpace=wrap;html=1;strokeWidth=2;fontColor=default;labelBackgroundColor=none;fontSize=20;fontStyle=0" vertex="1" parent="1">
                    <mxGeometry x="1138.75" y="757" width="245" height="43" as="geometry"/>
                </mxCell>
                <mxCell id="54" style="edgeStyle=none;shape=connector;rounded=1;orthogonalLoop=1;jettySize=auto;html=1;strokeWidth=2;align=center;verticalAlign=middle;fontFamily=Helvetica;fontSize=20;fontColor=default;labelBackgroundColor=none;endArrow=none;endFill=0;fontStyle=0" edge="1" parent="1" source="55" target="60">
                    <mxGeometry relative="1" as="geometry"/>
                </mxCell>
                <mxCell id="55" value="&lt;span style=&quot;font-family: sans-serif; font-size: 35px; text-align: start;&quot;&gt;⋈&lt;/span&gt;" style="text;html=1;align=center;verticalAlign=middle;whiteSpace=wrap;rounded=0;fontSize=35;labelBackgroundColor=none;strokeWidth=2;fontColor=default;fontStyle=0" vertex="1" parent="1">
                    <mxGeometry x="2609.75" y="428" width="75" height="30" as="geometry"/>
                </mxCell>
                <mxCell id="56" value="&lt;span style=&quot;font-family: Helvetica; font-size: 20px; font-style: normal; font-variant-ligatures: normal; font-variant-caps: normal; letter-spacing: normal; orphans: 2; text-align: left; text-indent: 0px; text-transform: none; widows: 2; word-spacing: 0px; -webkit-text-stroke-width: 0px; white-space: normal; text-decoration-thickness: initial; text-decoration-style: initial; text-decoration-color: initial; float: none; display: inline !important;&quot;&gt;av.id_asistente = m.id_asistente&lt;/span&gt;" style="text;whiteSpace=wrap;html=1;fontFamily=Helvetica;fontSize=20;labelBackgroundColor=none;strokeWidth=2;fontColor=default;fontStyle=0" vertex="1" parent="1">
                    <mxGeometry x="2679.75" y="428" width="320" height="34" as="geometry"/>
                </mxCell>
                <mxCell id="57" value="&lt;span style=&quot;font-family: Helvetica; font-size: 20px; font-style: normal; font-variant-ligatures: normal; font-variant-caps: normal; letter-spacing: normal; orphans: 2; text-align: left; text-indent: 0px; text-transform: none; widows: 2; word-spacing: 0px; -webkit-text-stroke-width: 0px; white-space: normal; text-decoration-thickness: initial; text-decoration-style: initial; text-decoration-color: initial; float: none; display: inline !important;&quot;&gt;u.email = b.email&lt;/span&gt;" style="text;whiteSpace=wrap;html=1;fontFamily=Helvetica;fontSize=20;labelBackgroundColor=none;strokeWidth=2;fontColor=default;fontStyle=0" vertex="1" parent="1">
                    <mxGeometry x="1251.25" y="650" width="190" height="50" as="geometry"/>
                </mxCell>
                <mxCell id="58" value="&lt;span style=&quot;font-family: Helvetica; font-size: 20px; font-style: normal; font-variant-ligatures: normal; font-variant-caps: normal; letter-spacing: normal; orphans: 2; text-align: left; text-indent: 0px; text-transform: none; widows: 2; word-spacing: 0px; -webkit-text-stroke-width: 0px; white-space: normal; text-decoration-thickness: initial; text-decoration-style: initial; text-decoration-color: initial; float: none; display: inline !important;&quot;&gt;u.email = t.email&lt;/span&gt;&lt;br style=&quot;forced-color-adjust: none; font-family: Helvetica; font-size: 20px; font-style: normal; font-variant-ligatures: normal; font-variant-caps: normal; letter-spacing: normal; orphans: 2; text-align: left; text-indent: 0px; text-transform: none; widows: 2; word-spacing: 0px; -webkit-text-stroke-width: 0px; white-space: normal; text-decoration-thickness: initial; text-decoration-style: initial; text-decoration-color: initial;&quot;&gt;" style="text;whiteSpace=wrap;html=1;fontFamily=Helvetica;fontSize=20;labelBackgroundColor=none;strokeWidth=2;fontColor=default;fontStyle=0" vertex="1" parent="1">
                    <mxGeometry x="2224.75" y="302" width="180" height="50" as="geometry"/>
                </mxCell>
                <mxCell id="59" style="edgeStyle=none;shape=connector;rounded=1;orthogonalLoop=1;jettySize=auto;html=1;strokeWidth=2;align=center;verticalAlign=middle;fontFamily=Helvetica;fontSize=20;fontColor=default;labelBackgroundColor=none;endArrow=none;endFill=0;fontStyle=0" edge="1" parent="1" source="60" target="61">
                    <mxGeometry relative="1" as="geometry">
                        <mxPoint x="2197.25" y="102" as="targetPoint"/>
                    </mxGeometry>
                </mxCell>
                <mxCell id="60" value="&lt;span style=&quot;font-family: sans-serif; text-align: start; font-size: 35px;&quot;&gt;&lt;font style=&quot;font-size: 35px;&quot;&gt;⋈&lt;/font&gt;&lt;/span&gt;" style="text;html=1;align=center;verticalAlign=middle;whiteSpace=wrap;rounded=0;fontSize=35;labelBackgroundColor=none;strokeWidth=2;fontColor=default;fontStyle=0" vertex="1" parent="1">
                    <mxGeometry x="2159.75" y="316" width="75" height="36" as="geometry"/>
                </mxCell>
                <mxCell id="61" value="π " style="text;html=1;align=center;verticalAlign=middle;whiteSpace=wrap;rounded=0;labelBackgroundColor=none;fontFamily=Helvetica;fontSize=35;strokeWidth=2;fontColor=default;fontStyle=0" vertex="1" parent="1">
                    <mxGeometry x="2167.25" y="32" width="60" height="30" as="geometry"/>
                </mxCell>
                <mxCell id="62" value="u.nombre" style="text;html=1;align=center;verticalAlign=middle;whiteSpace=wrap;rounded=0;labelBackgroundColor=none;fontFamily=Helvetica;fontSize=20;strokeWidth=2;fontColor=default;fontStyle=0" vertex="1" parent="1">
                    <mxGeometry x="2232.25" y="34.5" width="60" height="30" as="geometry"/>
                </mxCell>
                <mxCell id="63" value="&lt;font style=&quot;font-size: 40px;&quot;&gt;Arbol Optimizado&lt;/font&gt;" style="text;html=1;align=center;verticalAlign=middle;resizable=0;points=[];autosize=1;fontStyle=7;labelBackgroundColor=none;strokeWidth=2;fontColor=default;fontSize=40;" vertex="1" parent="1">
                    <mxGeometry x="1736.25" y="160" width="360" height="60" as="geometry"/>
                </mxCell>
            </root>
        </mxGraphModel>
    </diagram>
</mxfile>